HIERARCHY
ROOT Hips
{
 OFFSET 0.000000 0.000000 0.000000
 CHANNELS 6 Xposition Yposition Zposition Yrotation Xrotation Zrotation
 JOINT Chest
 {
  OFFSET 0.000000 10.383400 0.001500
  CHANNELS 3 Yrotation Xrotation Zrotation
  JOINT Chest2
  {
   OFFSET 0.000000 10.418200 -0.003100
   CHANNELS 3 Yrotation Xrotation Zrotation
   JOINT Chest3
   {
    OFFSET 0.000000 10.375100 0.000000
    CHANNELS 3 Yrotation Xrotation Zrotation
    JOINT Chest4
    {
     OFFSET 0.000000 10.364600 0.000000
     CHANNELS 3 Yrotation Xrotation Zrotation
     JOINT Neck
     {
      OFFSET 0.000000 15.642200 0.000000
      CHANNELS 3 Yrotation Xrotation Zrotation
      JOINT Head
      {
       OFFSET 0.000000 9.697300 -0.006500
       CHANNELS 3 Yrotation Xrotation Zrotation
       End Site
       {
        OFFSET 0.000000 18.492200 -0.003400
       }
      }
     }
     JOINT RightCollar
     {
      OFFSET -3.166800 10.349300 0.000000
      CHANNELS 3 Yrotation Xrotation Zrotation
      JOINT RightShoulder
      {
       OFFSET -14.729700 0.000000 0.000000
       CHANNELS 3 Yrotation Xrotation Zrotation
       JOINT RightElbow
       {
        OFFSET 0.000000 -32.224300 0.000000
        CHANNELS 3 Yrotation Xrotation Zrotation
        JOINT RightWrist
        {
         OFFSET 0.000000 -26.084100 0.000000
         CHANNELS 3 Yrotation Xrotation Zrotation
         End Site
         {
          OFFSET 0.000000 -19.319400 0.000000
         }
        }
       }
      }
     }
     JOINT LeftCollar
     {
      OFFSET 3.166800 10.349300 0.000000
      CHANNELS 3 Yrotation Xrotation Zrotation
      JOINT LeftShoulder
      {
       OFFSET 14.729700 0.000000 0.000000
       CHANNELS 3 Yrotation Xrotation Zrotation
       JOINT LeftElbow
       {
        OFFSET 0.000000 -32.224300 0.000000
        CHANNELS 3 Yrotation Xrotation Zrotation
        JOINT LeftWrist
        {
         OFFSET 0.000000 -26.084100 0.000000
         CHANNELS 3 Yrotation Xrotation Zrotation
         End Site
         {
          OFFSET 0.000000 -19.319400 0.000000
         }
        }
       }
      }
     }
    }
   }
  }
 }
 JOINT RightHip
 {
  OFFSET -8.428900 -0.007500 -0.000800
  CHANNELS 3 Yrotation Xrotation Zrotation
  JOINT RightKnee
  {
   OFFSET 0.000000 -43.834600 0.000700
   CHANNELS 3 Yrotation Xrotation Zrotation
   JOINT RightAnkle
   {
    OFFSET 0.000000 -42.757000 0.001200
    CHANNELS 3 Yrotation Xrotation Zrotation
    JOINT RightToe
    {
     OFFSET 0.000000 -6.946900 15.649300
     CHANNELS 3 Yrotation Xrotation Zrotation
     End Site
     {
      OFFSET 0.000000 -1.580800 6.825800
     }
    }
   }
  }
 }
 JOINT LeftHip
 {
  OFFSET 8.428900 -0.007500 -0.000800
  CHANNELS 3 Yrotation Xrotation Zrotation
  JOINT LeftKnee
  {
   OFFSET 0.000000 -43.834600 0.000700
   CHANNELS 3 Yrotation Xrotation Zrotation
   JOINT LeftAnkle
   {
    OFFSET 0.000000 -42.757000 0.001200
    CHANNELS 3 Yrotation Xrotation Zrotation
    JOINT LeftToe
    {
     OFFSET 0.000000 -6.946900 15.649300
     CHANNELS 3 Yrotation Xrotation Zrotation
     End Site
     {
      OFFSET 0.000000 -1.580800 6.825800
     }
    }
   }
  }
 }
}
MOTION
Frames: 14
Frame Time: 0.008333
0.000000 93.354300 0.000000 0.000000 -5.767877 0.000000 0.000000 11.653817 0.000000 0.000000 -5.885947 0.000000 0.000000 -0.000000 0.000000 0.000000 -0.000000 0.000000 0.000000 12.528835 0.000000 0.000000 0.711642 0.000000 0.000000 -0.000000 0.000000 0.000000 0.000000 -90.000000 0.000000 -2.309062 0.000000 0.000000 2.309062 0.000000 0.000000 -0.000000 0.000000 0.000000 -0.000000 90.000000 0.000000 -2.309062 0.000000 0.000000 2.309062 0.000000 0.000000 8.520406 0.000000 0.000000 1.905762 0.000000 -0.000000 -4.658285 0.000000 0.000000 -0.000000 0.000000 0.000000 8.520406 0.000000 0.000000 1.905762 0.000000 -0.000000 -4.658285 0.000000 0.000000 -0.000000 0.000000
129.552596 126.822180 5.291407 -16.565187 -25.937060 -1.463953 -0.746429 16.477757 2.247334 -0.102021 1.675923 0.240272 -0.171381 2.803372 0.395378 -0.690017 14.547334 1.989714 2.288998 13.210651 -1.393813 4.894695 -11.165427 -3.559440 -2.652175 -6.888268 -4.613693 4.189730 -6.357348 -5.628458 33.027628 -50.682029 -6.451903 10.761955 7.738064 -23.976753 -0.918601 -7.639157 -2.566826 -0.054103 -2.181682 4.773813 -41.632918 -56.743474 16.689112 -26.664403 9.019558 18.906004 -5.271264 -43.248711 -0.932174 -18.463449 66.137524 -22.136498 -0.295636 3.881852 8.222643 -0.000129 -0.008846 -0.000057 -2.619385 -36.651965 -6.207785 -2.963792 62.155920 1.251551 -16.765289 0.618258 -9.007362 0.001487 0.000094 0.000660
129.552355 126.822189 5.291102 -16.562523 -25.938997 -1.465796 -0.745878 16.475262 2.253273 -0.105044 1.678041 0.237912 -0.171596 2.803050 0.395726 -0.688293 14.549007 1.992261 2.289885 13.209367 -1.398051 4.894471 -11.165456 -3.563325 -2.653062 -6.897777 -4.615592 4.190375 -6.357907 -5.629625 33.021884 -50.671164 -6.440330 10.752076 7.739563 -23.971540 -0.921753 -7.643757 -2.568092 -0.054809 -2.180909 4.772170 -41.629301 -56.734406 16.689844 -26.658796 9.013407 18.908984 -5.279080 -43.246347 -0.931389 -18.461963 66.140625 -22.131344 -0.292103 3.877353 8.216065 0.001679 -0.007386 0.000745 -2.631286 -36.651194 -6.202899 -2.962541 62.154956 1.248652 -16.777088 0.618413 -9.008699 0.001516 0.000068 0.000673
129.552433 126.822107 5.290672 -16.563016 -25.939865 -1.464526 -0.746067 16.475037 2.253344 -0.105300 1.678099 0.237526 -0.171327 2.801930 0.396351 -0.691367 14.546315 1.995580 2.293960 13.205950 -1.401637 4.898560 -11.165291 -3.570742 -2.647637 -6.898787 -4.619588 4.189875 -6.360065 -5.630732 33.013332 -50.662992 -6.427979 10.745684 7.739988 -23.971019 -0.921955 -7.643245 -2.570364 -0.053915 -2.181760 4.770971 -41.629572 -56.726993 16.687099 -26.652830 9.011632 18.912312 -5.282702 -43.245232 -0.932669 -18.454085 66.141269 -22.123967 -0.290142 3.876543 8.220332 0.000786 -0.006990 0.000349 -2.639301 -36.652159 -6.196402 -2.970406 62.152157 1.240115 -16.818722 0.619499 -9.009270 -0.000343 0.000326 -0.000152
129.552517 126.821992 5.290154 -16.563044 -25.940138 -1.463169 -0.746200 16.475054 2.252466 -0.105077 1.677709 0.238019 -0.171536 2.801707 0.395884 -0.690349 14.543827 1.997963 2.293710 13.207147 -1.403941 4.904063 -11.169206 -3.575894 -2.646296 -6.903424 -4.619328 4.188924 -6.355449 -5.633069 33.001550 -50.658238 -6.419668 10.741623 7.728211 -23.967921 -0.929059 -7.644102 -2.568764 -0.050316 -2.183368 4.770672 -41.628436 -56.719359 16.682555 -26.648416 9.009790 18.912882 -5.286703 -43.244982 -0.934301 -18.451546 66.140595 -22.120541 -0.285287 3.876627 8.220760 -0.000107 -0.006838 -0.000048 -2.642519 -36.653369 -6.194198 -2.980054 62.151302 1.231768 -16.845890 0.619705 -9.008481 -0.001557 0.000708 -0.000691
129.551885 126.822156 5.289943 -16.563108 -25.943280 -1.464552 -0.745583 16.476171 2.253429 -0.105982 1.675669 0.237957 -0.170702 2.805043 0.396344 -0.692012 14.542376 1.996487 2.296198 13.206876 -1.402915 4.905273 -11.172041 -3.578218 -2.643965 -6.904293 -4.617228 4.188339 -6.352761 -5.633965 32.997020 -50.656639 -6.413994 10.742074 7.726737 -23.966680 -0.934447 -7.647872 -2.564316 -0.054078 -2.183560 4.772773 -41.615390 -56.711245 16.671501 -26.644741 9.010000 18.917233 -5.290676 -43.241761 -0.932945 -18.456535 66.139199 -22.121813 -0.278964 3.877777 8.219442 0.000117 -0.007376 0.000052 -2.646645 -36.651055 -6.191248 -2.981808 62.152536 1.231689 -16.861298 0.617054 -9.006608 -0.002081 0.001139 -0.000924
129.551726 126.822403 5.290112 -16.563541 -25.947442 -1.461983 -0.749108 16.477712 2.250813 -0.103546 1.677609 0.237153 -0.173262 2.803382 0.396203 -0.690818 14.544440 1.995423 2.291722 13.201427 -1.402495 4.905839 -11.174998 -3.575897 -2.640127 -6.905864 -4.615158 4.190942 -6.355564 -5.637784 32.976579 -50.654147 -6.397290 10.745927 7.727584 -23.963468 -0.938853 -7.654371 -2.562489 -0.055087 -2.178474 4.773994 -41.614630 -56.704390 16.669152 -26.638273 9.009830 18.924748 -5.290900 -43.238829 -0.935896 -18.454973 66.139769 -22.119853 -0.274906 3.880548 8.221739 -0.000142 -0.007724 -0.000063 -2.652487 -36.647390 -6.192325 -2.970808 62.153329 1.238899 -16.863409 0.614727 -9.005810 -0.002069 0.001496 -0.000919
129.551492 126.822378 5.289635 -16.565638 -25.947562 -1.459398 -0.749371 16.478323 2.249320 -0.102915 1.677171 0.236739 -0.174767 2.803874 0.396862 -0.690378 14.543854 1.994610 2.287218 13.199619 -1.401828 4.904837 -11.179419 -3.574949 -2.637674 -6.909127 -4.608514 4.197598 -6.353579 -5.646559 32.966382 -50.653045 -6.396459 10.743446 7.727298 -23.957089 -0.943667 -7.660906 -2.562115 -0.064288 -2.174752 4.770638 -41.604547 -56.696297 16.671335 -26.638331 9.006909 18.926248 -5.289773 -43.239942 -0.937300 -18.454660 66.139674 -22.118759 -0.271199 3.883809 8.223885 -0.001031 -0.007779 -0.000457 -2.655223 -36.649293 -6.194452 -2.958876 62.157157 1.247059 -16.851606 0.612880 -9.003787 -0.001068 0.000768 -0.000474
129.551262 126.822079 5.288577 -16.577611 -25.944067 -1.452766 -0.741451 16.475627 2.248296 -0.104980 1.677782 0.237571 -0.171515 2.802535 0.395307 -0.692211 14.543342 1.994763 2.286535 13.199530 -1.402502 4.883361 -11.183949 -3.566627 -2.637792 -6.914852 -4.604081 4.200507 -6.353538 -5.658483 32.950115 -50.654222 -6.378628 10.746757 7.728843 -23.954228 -0.944428 -7.663870 -2.562636 -0.077999 -2.175398 4.767856 -41.592155 -56.685640 16.672083 -26.636343 9.004702 18.926697 -5.278787 -43.244190 -0.938616 -18.453038 66.134230 -22.111748 -0.269835 3.889844 8.219031 -0.000525 -0.007609 -0.000233 -2.652858 -36.653508 -6.202948 -2.941549 62.163301 1.260355 -16.790735 0.609711 -8.998976 0.003278 0.000712 0.001455
129.550885 126.822153 5.288281 -16.580540 -25.944690 -1.449242 -0.747677 16.473663 2.248781 -0.102151 1.679223 0.234003 -0.171427 2.803089 0.394883 -0.690482 14.543066 1.994431 2.285074 13.200875 -1.404070 4.873624 -11.182852 -3.562079 -2.640300 -6.923158 -4.598294 4.209247 -6.349022 -5.668851 32.937602 -50.653299 -6.367946 10.744147 7.730192 -23.952829 -0.945072 -7.666372 -2.563067 -0.088394 -2.179663 4.764018 -41.583270 -56.669405 16.667601 -26.634728 8.999584 18.938187 -5.274711 -43.243976 -0.942582 -18.444823 66.133090 -22.100637 -0.269142 3.892173 8.220974 -0.001620 -0.008262 -0.000719 -2.659872 -36.655211 -6.197791 -2.935955 62.161688 1.265193 -16.820349 0.608710 -9.005927 0.000648 0.000554 0.000288
129.550703 126.822391 5.288475 -16.585755 -25.947545 -1.442722 -0.746427 16.475844 2.246215 -0.103100 1.678694 0.234835 -0.172857 2.801870 0.396614 -0.689045 14.544234 1.989578 2.279562 13.201407 -1.401151 4.869081 -11.178532 -3.561883 -2.642368 -6.928287 -4.594118 4.211474 -6.349379 -5.673308 32.919666 -50.645816 -6.354757 10.750919 7.722717 -23.954089 -0.954472 -7.670318 -2.557368 -0.100693 -2.185692 4.772610 -41.543270 -56.662161 16.636794 -26.635259 8.997855 18.946005 -5.271887 -43.243156 -0.945205 -18.453041 66.134795 -22.107087 -0.264510 3.888462 8.221177 -0.000875 -0.007604 -0.000388 -2.661373 -36.655544 -6.196939 -2.938312 62.160586 1.267950 -16.853571 0.609955 -9.014890 -0.002126 0.000327 -0.000944
129.550794 126.822392 5.288159 -16.590698 -25.946659 -1.435808 -0.746505 16.475857 2.241767 -0.104876 1.677755 0.236887 -0.169709 2.802484 0.393776 -0.691906 14.544100 1.988517 2.281156 13.200913 -1.401259 4.861539 -11.171991 -3.557309 -2.639486 -6.931003 -4.592894 4.207029 -6.352130 -5.673704 32.907210 -50.640828 -6.341508 10.738566 7.712112 -23.958289 -0.963908 -7.675568 -2.553245 -0.100635 -2.186722 4.774084 -41.538432 -56.658212 16.636589 -26.635128 9.000572 18.948260 -5.265268 -43.245002 -0.951445 -18.449915 66.134288 -22.098222 -0.264240 3.888079 8.214239 0.000117 -0.006484 0.000052 -2.661375 -36.658850 -6.201324 -2.950606 62.159719 1.264122 -16.855658 0.609984 -9.022685 -0.002718 -0.000675 -0.001207
129.550395 126.822449 5.287762 -16.594992 -25.946049 -1.432186 -0.749867 16.476660 2.239292 -0.100622 1.677221 0.236080 -0.168075 2.802306 0.393355 -0.699954 14.545165 1.989338 2.275529 13.207162 -1.399339 4.869630 -11.172944 -3.561970 -2.635592 -6.940093 -4.590220 4.210029 -6.346215 -5.677934 32.893529 -50.644233 -6.333126 10.735372 7.712364 -23.958544 -0.957773 -7.679632 -2.556347 -0.111559 -2.190515 4.777480 -41.566489 -56.641417 16.655547 -26.610929 9.002271 18.962036 -5.263221 -43.246403 -0.952455 -18.445788 66.134304 -22.093705 -0.259519 3.887081 8.213117 -0.001869 -0.006178 -0.000829 -2.657304 -36.661054 -6.203176 -2.953017 62.162452 1.261434 -16.833596 0.611103 -9.020040 -0.002098 -0.000303 -0.000931
129.549694 126.822576 5.287355 -16.599763 -25.945921 -1.430323 -0.752862 16.477611 2.238711 -0.096982 1.676540 0.235372 -0.171851 2.802557 0.393925 -0.705004 14.547471 1.990429 2.276875 13.210298 -1.400075 4.877593 -11.175529 -3.568403 -2.623739 -6.955076 -4.593103 4.196940 -6.339243 -5.679709 32.879928 -50.644741 -6.315927 10.736770 7.709470 -23.958877 -0.961542 -7.692323 -2.563607 -0.108064 -2.186562 4.785195 -41.558684 -56.633177 16.647587 -26.604135 9.002635 18.973400 -5.261815 -43.248325 -0.951676 -18.436382 66.136643 -22.079373 -0.260628 3.885016 8.206999 -0.000785 -0.007460 -0.000349 -2.654686 -36.663340 -6.199495 -2.960090 62.165140 1.257652 -16.832010 0.611435 -9.022407 -0.002674 0.000573 -0.001187
